<?xml version="1.0" encoding="UTF-8" standalone="no"?>
<!-- Created with Inkscape (http://www.inkscape.org/) -->

<svg
   xmlns:osb="http://www.openswatchbook.org/uri/2009/osb"
   xmlns:dc="http://purl.org/dc/elements/1.1/"
   xmlns:cc="http://creativecommons.org/ns#"
   xmlns:rdf="http://www.w3.org/1999/02/22-rdf-syntax-ns#"
   xmlns:svg="http://www.w3.org/2000/svg"
   xmlns="http://www.w3.org/2000/svg"
   xmlns:xlink="http://www.w3.org/1999/xlink"
   xmlns:sodipodi="http://sodipodi.sourceforge.net/DTD/sodipodi-0.dtd"
   xmlns:inkscape="http://www.inkscape.org/namespaces/inkscape"
   width="1600px"
   height="1200px"
   id="svg2985"
   version="1.1"
   inkscape:version="0.48.5 r10040"
   sodipodi:docname="secretsauce.svg">
  <defs
     id="defs2987">
    <linearGradient
       id="linearGradient3833"
       osb:paint="solid">
      <stop
         style="stop-color:#4d0000;stop-opacity:1;"
         offset="0"
         id="stop3835" />
    </linearGradient>
    <linearGradient
       inkscape:collect="always"
       xlink:href="#linearGradient3833"
       id="linearGradient3837"
       x1="386.0517"
       y1="614.27991"
       x2="988.09247"
       y2="614.27991"
       gradientUnits="userSpaceOnUse" />
  </defs>
  <sodipodi:namedview
     id="base"
     pagecolor="#ffffff"
     bordercolor="#666666"
     borderopacity="1.0"
     inkscape:pageopacity="0.0"
     inkscape:pageshadow="2"
     inkscape:zoom="0.84852814"
     inkscape:cx="345.32563"
     inkscape:cy="379.87829"
     inkscape:current-layer="layer1"
     inkscape:document-units="px"
     showgrid="false"
     inkscape:window-width="1920"
     inkscape:window-height="1014"
     inkscape:window-x="0"
     inkscape:window-y="27"
     inkscape:window-maximized="1" />
  <metadata
     id="metadata2990">
    <rdf:RDF>
      <cc:Work
         rdf:about="">
        <dc:format>image/svg+xml</dc:format>
        <dc:type
           rdf:resource="http://purl.org/dc/dcmitype/StillImage" />
        <dc:title></dc:title>
      </cc:Work>
    </rdf:RDF>
  </metadata>
  <g
     inkscape:groupmode="layer"
     id="layer2"
     inkscape:label="Layer">
    <path
       style="fill:none;stroke:#000000;stroke-width:1px;stroke-linecap:butt;stroke-linejoin:miter;stroke-opacity:1"
       d="M 348.33333,651.66667 C 366.66667,1076.6667 641.66667,1023.3333 690,1021.6667"
       id="path3841"
       inkscape:connector-curvature="0" />
    <path
       style="fill:none;stroke:#000000;stroke-width:1px;stroke-linecap:butt;stroke-linejoin:miter;stroke-opacity:1"
       d="M 688.33333,1021.6667 C 1018.3816,1002.4171 953.58115,654.67226 958.33333,655"
       id="path3843"
       inkscape:connector-curvature="0"
       sodipodi:nodetypes="cc" />
  </g>
  <g
     id="layer1"
     inkscape:label="Layer 1"
     inkscape:groupmode="layer">
    <path
       sodipodi:type="arc"
       style="fill:#ff0000;fill-opacity:1;fill-rule:evenodd;stroke:url(#linearGradient3837);stroke-width:9.10728259;stroke-linecap:butt;stroke-linejoin:miter;stroke-opacity:1;stroke-miterlimit:4;stroke-dasharray:none"
       id="path2993"
       sodipodi:cx="687.07208"
       sodipodi:cy="614.27991"
       sodipodi:rx="300.52039"
       sodipodi:ry="185.02628"
       d="m 987.59247,614.27991 a 300.52039,185.02628 0 1 1 -0.0436,-3.153"
       transform="matrix(1.0159022,0,0,0.91112292,-40.580594,96.51379)"
       sodipodi:start="0"
       sodipodi:end="6.2661437"
       sodipodi:open="true" />
    <flowRoot
       xml:space="preserve"
       id="flowRoot3817"
       style="fill:black;stroke:none;stroke-opacity:1;stroke-width:1px;stroke-linejoin:miter;stroke-linecap:butt;fill-opacity:1;font-family:Sans;font-style:normal;font-weight:normal;font-size:40px;line-height:125%;letter-spacing:0px;word-spacing:0px"><flowRegion
         id="flowRegion3819"><rect
           id="rect3821"
           width="240.41631"
           height="148.49243"
           x="898.02563"
           y="396.25528" /></flowRegion><flowPara
         id="flowPara3823"></flowPara></flowRoot>    <path
       style="fill:#ffdd55;fill-opacity:1;stroke:#4d0000;stroke-width:3.50000005;stroke-miterlimit:4;stroke-opacity:1;stroke-dasharray:none"
       d="M 595.60535,1020.9747 C 485.79627,1008.2216 409.7591,936.42975 373.85021,811.60063 364.6102,779.4798 356.27971,734.57802 353.80813,703.57273 l -0.93001,-11.66667 4.20944,8.9405 c 29.1047,61.81598 114.92783,108.33972 229.94078,124.64829 26.84406,3.80642 106.47735,4.3433 134.16666,0.90454 104.92389,-13.03061 189.14572,-53.40795 226.67447,-108.67149 3.54637,-5.22224 7.6265,-12.04353 9.06695,-15.15841 2.46815,-5.33714 2.57225,-4.02061 1.80695,22.85161 -1.7565,61.67631 -12.65285,110.69662 -34.41335,154.8183 -36.61807,74.2469 -102.91328,120.4957 -193.79428,135.1946 -38.91622,6.2943 -105.05649,9.0102 -134.93039,5.5407 z"
       id="path3847"
       inkscape:connector-curvature="0" />
    <path
       style="fill:none;stroke:#000000;stroke-width:1px;stroke-linecap:butt;stroke-linejoin:miter;stroke-opacity:1"
       d="m 357.55923,677.74407 c 74.47953,-161.5797 270.12534,-163.10454 275.673,-159.49449 250.63959,-18.5846 305.58956,128.52899 325.69036,148.51819"
       id="path3849"
       inkscape:connector-curvature="0"
       sodipodi:nodetypes="ccc" />
    <path
       style="fill:#ffdd55;fill-opacity:1;stroke:#4d0000;stroke-width:2.06239486;stroke-miterlimit:4;stroke-opacity:1;stroke-dasharray:none"
       d="m 357.52061,667.07802 c -0.98415,-7.72248 -0.42823,-21.4858 1.17242,-29.02644 5.79354,-27.29336 23.51896,-52.82128 52.32241,-75.35406 45.98724,-35.97556 117.4059,-60.81995 195.48699,-68.004 24.28648,-2.23454 59.32603,-2.88437 81.90653,-1.51901 92.38635,5.58626 173.01598,32.91033 222.73864,75.48251 27.46522,23.51552 43.49549,50.77535 46.34885,78.81724 l 0.67947,6.67758 1.90276,-0.35696 c 1.43113,-0.26849 1.99275,-0.12249 2.26581,0.58898 0.54818,1.42865 0.5341,1.43882 -1.99404,1.43882 l -2.35703,0 -0.013,4.27211 0.2995,10.5221 -2.32028,4.77686 c -0.45274,0.93206 -4.11565,-19.53883 -8.72893,-26.34134 -9.19353,-13.55572 -18.79496,-26.5487 -25.696,-34.77225 -6.63162,-7.9025 -23.52725,-24.59435 -31.87509,-31.49064 -42.59051,-35.1847 -96.44787,-56.61817 -160.74654,-63.97186 -22.32498,-2.55326 -59.98644,-3.51564 -81.92468,-2.08109 -4.86136,0.31789 -13.91398,-0.2823 -19.56748,0.21288 -30.12946,2.63899 -78.16568,7.68343 -115.78873,21.76488 -52.38461,19.60635 -94.64129,50.01689 -125.88112,90.59185 -7.96157,10.34065 -20.9684,30.63926 -22.78737,42.78819 -0.48038,3.20847 -4.10482,8.38379 -4.44915,6.90281 -1.61902,-6.96339 -1.02048,-4.16492 -1.41069,-7.33583 z"
       id="path3851"
       inkscape:connector-curvature="0"
       sodipodi:nodetypes="csssssscscscccscssssssssscc" />
    <flowRoot
       xml:space="preserve"
       id="flowRoot3853"
       style="font-size:72px;font-style:normal;font-weight:normal;line-height:125%;letter-spacing:0px;word-spacing:0px;fill:#000000;fill-opacity:1;stroke:none;font-family:Sans"
       transform="translate(71.88919,18.85618)"><flowRegion
         id="flowRegion3855"><rect
           id="rect3857"
           width="155.56349"
           height="141.42136"
           x="560.97137"
           y="847.62512"
           style="font-size:72px" /></flowRegion><flowPara
         id="flowPara3859"
         style="font-size:72px">?</flowPara></flowRoot>  </g>
</svg>
